<?xml version="1.0" encoding="UTF-8" standalone="no"?>
<!-- Created with Inkscape (http://www.inkscape.org/) -->

<svg
   width="174.52727mm"
   height="75.479073mm"
   viewBox="0 0 174.52727 75.479073"
   version="1.1"
   id="svg5"
   xml:space="preserve"
   xmlns="http://www.w3.org/2000/svg"
   xmlns:svg="http://www.w3.org/2000/svg"><defs
     id="defs2" /><g
     id="layer1"
     transform="translate(-27.907012,-103.67527)"><rect
       style="fill:none;stroke:none;stroke-width:0.499999;stroke-linejoin:round"
       id="rect810"
       width="174.52727"
       height="75.479065"
       x="27.907011"
       y="103.67527"
       ry="0.39263999" /><path
       style="fill:#595c61;stroke-width:0.18678"
       d="m 77.577405,165.12521 c -3.986727,-0.46364 -8.288694,-2.04537 -11.563534,-4.25161 -1.616022,-1.08871 -3.85425,-2.90607 -3.579059,-2.90607 0.05664,0 0.608477,0.2045 1.22629,0.45445 2.093146,0.84682 3.53551,1.09743 6.601465,1.14698 l 2.886915,0.0466 0.342081,0.70021 c 0.188143,0.38512 0.342078,0.89492 0.342078,1.13287 0,0.2815 0.110225,0.43265 0.315516,0.43265 0.173532,0 0.489412,0.15897 0.701955,0.35328 0.434631,0.39732 3.458019,0.76489 6.292781,0.76506 l 1.581187,9e-5 0.815566,0.94291 c 0.448563,0.5186 0.767518,0.99074 0.708794,1.04922 -0.129077,0.12851 -5.747941,0.24077 -6.672035,0.1333 z m 4.28145,-2.8245 c -0.232838,-0.2956 -0.226216,-0.30219 0.07067,-0.0704 0.180169,0.14068 0.327578,0.28745 0.327578,0.32616 0,0.15339 -0.153716,0.0546 -0.398253,-0.25579 z m -3.763933,-3.50015 c -0.384565,-0.356 -0.632733,-0.64726 -0.551488,-0.64726 0.08125,0 0.433472,0.29353 0.782723,0.6523 0.814868,0.83707 0.675166,0.83402 -0.231235,-0.005 z m 12.848653,-0.69387 -0.356592,-0.41933 0.421173,0.35504 c 0.395798,0.33365 0.50639,0.48364 0.356593,0.48364 -0.03553,0 -0.22505,-0.1887 -0.421174,-0.41935 z m -3.642461,-3.4473 -0.645082,-0.6989 0.701955,0.64227 c 0.653366,0.59782 0.788023,0.75553 0.645083,0.75553 -0.03128,0 -0.347161,-0.31451 -0.701956,-0.6989 z M 69.621908,153.7393 c -2.307797,-0.24605 -3.248426,-0.45892 -5.452191,-1.58782 -0.955915,-0.56155 -2.975443,-2.4672 -3.651629,-3.44573 l -0.554357,-0.80223 1.178919,0.005 1.178919,0.005 0.46797,0.77281 c 1.362454,2.24998 4.119589,4.00534 7.159947,4.55848 0.900844,0.16388 1.637729,0.35005 1.637523,0.41371 -3.74e-4,0.13351 -0.882325,0.16976 -1.965101,0.0808 z m 24.740037,-0.55522 c -0.06864,-0.0683 -0.124792,-0.36521 -0.124792,-0.65972 0,-0.29453 -0.16847,-0.86428 -0.374377,-1.26613 -0.205906,-0.40185 -0.374376,-1.02567 -0.374376,-1.38625 0,-0.36058 -0.22804,-1.11855 -0.506756,-1.68436 -0.472812,-0.95985 -0.490579,-1.08183 -0.265232,-1.82126 0.559796,-1.83687 0.411774,-2.76827 -0.662875,-4.17108 -0.405739,-0.52963 -0.464742,-0.75376 -0.363833,-1.38206 0.159967,-0.99603 -0.116444,-1.48289 -0.841894,-1.48289 -0.312594,0 -0.702325,-0.13338 -0.866073,-0.29642 -0.193122,-0.19228 -0.500815,-0.26598 -0.875774,-0.20974 -0.731608,0.10969 -1.84598,0.54191 -2.025893,0.78573 -0.07564,0.10246 -0.138814,-0.0354 -0.14039,-0.30652 -0.0089,-1.53293 -1.787432,-5.43348 -3.367901,-7.38628 l -0.933682,-1.15364 0.558259,-0.41094 c 0.41324,-0.3042 0.558259,-0.56286 0.558259,-0.99571 0,-0.7574 0.666074,-1.39524 1.457009,-1.39524 0.324792,0 0.921825,-0.17193 1.32674,-0.38207 0.430031,-0.22316 1.284531,-0.42782 2.054667,-0.49212 l 1.318461,-0.11005 0.119394,0.53871 c 0.06566,0.29629 0.147067,0.63118 0.180884,0.74418 0.05476,0.18298 0.776605,0.48535 2.396143,1.00372 0.458075,0.14662 0.545136,0.11067 0.697324,-0.28785 0.200235,-0.52438 0.343565,-0.54348 1.493481,-0.19909 0.569727,0.17062 1.175549,0.20769 1.871881,0.11458 0.566244,-0.0758 1.102638,-0.0952 1.191986,-0.0433 0.08935,0.0519 0.111095,0.46749 0.04832,0.92348 -0.104986,0.76259 -0.05661,0.89884 0.603305,1.69938 0.394589,0.47867 0.940968,1.24772 1.214177,1.70899 0.273213,0.46127 0.916463,1.29283 1.429453,1.84791 l 0.93271,1.00923 0.72792,-0.21715 c 0.98953,-0.29517 0.96528,-0.3076 0.96528,0.49454 0,1.12973 -0.52957,2.6063 -1.20255,3.35305 -0.34092,0.37828 -0.79946,1.04089 -1.01897,1.47245 -0.43001,0.84541 -0.53357,2.26846 -0.18997,2.61056 0.11502,0.11458 0.22032,0.67269 0.23398,1.24037 0.0245,1.01707 0.011,1.04535 -0.95789,1.93701 -0.918413,0.84563 -0.98274,0.96245 -0.98274,1.78472 0,0.61579 -0.0855,0.91253 -0.284869,0.9887 -0.156678,0.0599 -0.462135,0.51911 -0.678797,1.02056 -0.44326,1.0259 -1.408935,1.96985 -2.175169,2.12621 -0.281233,0.0574 -0.81593,0.18441 -1.188211,0.28226 -0.805525,0.21171 -0.817222,0.21235 -0.976619,0.0536 z m 7.674715,-3.3548 c -0.2065,-0.2056 -0.14057,-1.09011 0.099,-1.32868 0.12311,-0.12256 0.20515,-0.53806 0.18232,-0.92331 -0.0364,-0.61363 0.0776,-0.82477 0.91933,-1.70346 0.7396,-0.77204 0.99867,-0.94352 1.12513,-0.74473 0.0903,0.14206 0.16557,0.31642 0.16715,0.38746 0.006,0.29479 -1.17414,3.63108 -1.42179,4.01763 -0.2581,0.40284 -0.81019,0.55493 -1.07118,0.29509 z m -14.807029,-2.24407 c -0.101583,-0.26562 -0.08009,-0.28703 0.10479,-0.1043 0.127928,0.12642 0.185442,0.2768 0.127808,0.33419 -0.05763,0.0574 -0.162301,-0.046 -0.232596,-0.22986 z m -26.543149,-0.18648 -1.26071,-0.0708 -0.421317,-1.34275 c -0.592761,-1.88917 -0.598085,-4.90047 -0.012,-6.75532 1.025737,-3.24596 3.803853,-6.00477 7.249454,-7.19906 1.298314,-0.45001 1.796784,-0.52305 3.583984,-0.52519 2.645327,-0.004 4.527803,0.45237 6.340402,1.53437 4.352559,2.59817 6.484349,7.43793 5.356859,12.16157 -0.220204,0.92254 -0.478978,1.80315 -0.57505,1.95691 -0.151298,0.24214 -1.434626,0.28167 -9.587824,0.2953 -5.177231,0.009 -9.980467,-0.0162 -10.673856,-0.0551 z m 3.664709,-2.12454 c 0.742608,-0.33688 0.871794,-0.91723 0.871794,-3.91639 v -2.80116 l -0.547165,-0.54478 c -0.535786,-0.53347 -0.588342,-0.54479 -2.527041,-0.54479 h -1.979874 v 4.00702 4.00703 h 1.863075 c 1.024689,0 2.068335,-0.093 2.319211,-0.20693 z m -1.894514,-3.80064 c 0.03144,-1.51888 0.126289,-2.51657 0.239268,-2.51657 0.11298,0 0.207835,0.99769 0.239267,2.51657 0.04503,2.17548 0.01258,2.51659 -0.239267,2.51659 -0.251858,0 -0.284289,-0.34111 -0.239268,-2.51659 z m 6.69726,0.10553 v -3.90203 l -0.608361,-0.0584 c -0.889822,-0.0855 -2.935266,0.9289 -2.942653,1.45924 -0.0058,0.41141 0.318109,0.62565 0.94569,0.62565 0.338519,0 0.359066,0.16531 0.359066,2.88878 v 2.8888 h 1.123129 1.123129 z m 4.743925,3.69508 c 0.824795,-0.37418 0.966016,-0.93751 0.956707,-3.81632 -0.0094,-2.90298 -0.154759,-3.45386 -0.999156,-3.78621 -1.184701,-0.46631 -2.840733,-0.32902 -3.459228,0.28678 -0.491925,0.48978 -0.493495,0.50081 -0.493495,3.46225 v 2.97089 l 0.547166,0.54478 c 0.493035,0.4909 0.668084,0.54479 1.769479,0.54479 0.672273,0 1.42761,-0.0932 1.678527,-0.20696 z m -1.815956,-1.79656 c -0.17301,-1.04215 -0.138594,-4.20199 0.04898,-4.49683 0.08987,-0.14127 0.257044,-0.19922 0.37151,-0.12878 0.221649,0.13638 0.303399,4.48768 0.09449,5.02971 -0.189661,0.4921 -0.392648,0.33282 -0.514984,-0.4041 z m 7.855566,1.38277 c 0.431502,-0.49947 0.447756,-0.62556 0.447756,-3.47329 v -2.95501 l -0.575928,-0.4825 c -0.487816,-0.40869 -0.758526,-0.48251 -1.769478,-0.48251 -1.392887,0 -2.024955,0.23713 -2.313657,0.868 -0.122863,0.26849 -0.207829,1.59935 -0.207829,3.25532 v 2.80117 l 0.567332,0.56486 c 0.548618,0.54623 0.614126,0.56251 1.985691,0.49355 1.275051,-0.0642 1.463596,-0.12368 1.866113,-0.58959 z m -2.246446,-0.97867 c -0.06249,-0.16214 -0.112331,-1.31533 -0.110752,-2.56264 0.0027,-2.14725 0.163577,-3.00226 0.501724,-2.66676 0.183826,0.18239 0.320911,4.44889 0.163065,5.07505 -0.129622,0.51421 -0.387634,0.58609 -0.554033,0.15435 z m -39.420272,-8.13934 c 0.0015,-3.20329 0.07021,-5.92979 0.152523,-6.05888 0.08231,-0.12909 0.628545,-0.2713 1.213856,-0.31602 l 1.064201,-0.0813 v 6.14019 6.14018 h -1.216723 -1.216723 l 0.0028,-5.82416 z m 4.159513,-0.24391 0.04936,-6.06805 3.182199,-0.0195 3.1822,-0.0195 0.02869,0.54289 c 0.01578,0.29859 -0.01881,3.03796 -0.07687,6.08749 l -0.105561,5.54461 H 45.535598 42.38091 Z m 8.004852,0.011 v -6.05712 h 3.275793 c 3.198278,0 3.275794,0.009 3.275794,0.38961 0,0.21429 -0.368726,0.82233 -0.819393,1.35121 -2.155292,2.52933 -3.659084,5.96002 -3.9643,9.044 l -0.131573,1.32943 h -0.818161 -0.81816 z m 36.703662,5.38934 c 0.0089,-0.21712 0.05334,-0.26127 0.11309,-0.11262 0.05407,0.13454 0.04742,0.29528 -0.01476,0.35722 -0.0622,0.0619 -0.106442,-0.0481 -0.09831,-0.24462 z m 14.405299,-6.21592 c -0.10658,-0.19828 -0.19605,-0.51278 -0.19884,-0.6989 -0.005,-0.30956 -0.70642,-1.33823 -2.134436,-3.12857 -0.664197,-0.37482 -1.166178,-1.7359 -1.992493,-3.85186 -0.163812,-0.30475 -0.369397,-0.35823 -1.241946,-0.32308 -1.096628,0.0442 -1.187883,-0.009 -1.935816,-1.13213 -0.254505,-0.38211 -0.342754,-0.40769 -0.717487,-0.20802 -0.405281,0.21596 -0.410857,0.24576 -0.108266,0.57866 0.184976,0.2035 0.268104,0.48306 0.197847,0.66535 -0.0991,0.25713 -0.248121,0.16676 -0.818252,-0.49618 -1.167702,-1.3578 -1.229145,-1.41284 -2.164978,-1.93937 -0.801064,-0.45072 -0.898761,-0.46999 -0.841178,-0.1659 0.03583,0.18922 0.460167,0.59564 0.942962,0.90315 0.895036,0.57009 1.057778,0.93895 0.704364,1.59643 -0.201076,0.37407 -0.742166,0.50102 -0.742166,0.17411 0,-0.10246 0.132528,-0.18637 0.294506,-0.18637 0.574095,0 0.167759,-0.62954 -0.75458,-1.1691 -0.510374,-0.29855 -1.028354,-0.67953 -1.151064,-0.84662 -0.183632,-0.25004 -0.300971,-0.26517 -0.663102,-0.0856 -0.241995,0.12009 -0.608459,0.24856 -0.814366,0.28555 -0.205907,0.037 -0.356661,0.15714 -0.335009,0.26697 0.02166,0.10981 -0.125758,0.3485 -0.327578,0.53035 -0.201821,0.18186 -0.366948,0.46934 -0.366948,0.63888 0,0.92903 -1.357068,1.60012 -2.339336,1.15684 -0.588281,-0.26549 -0.595937,-0.28579 -0.566266,-1.5017 l 0.03008,-1.23258 h 0.922994 c 0.889027,0 0.925029,-0.0207 0.978267,-0.56054 0.04526,-0.45896 -0.05106,-0.62308 -0.531454,-0.90563 l -0.586727,-0.34508 0.718643,-0.45857 c 0.729137,-0.46526 0.666412,-0.47818 -0.638116,-0.13146 -0.39994,0.10626 -0.416488,0.0693 -0.333537,-0.74695 0.04973,-0.4893 0.0093,-0.85879 -0.09396,-0.85879 -0.09967,0 -0.18123,0.20069 -0.18123,0.44599 0,0.45892 -0.30822,0.67224 -0.971279,0.67224 -0.268777,0 -0.34603,-0.0858 -0.265472,-0.2948 0.06249,-0.16213 0.113616,-0.41554 0.113616,-0.56311 0,-0.14758 0.204569,-0.36112 0.454598,-0.47454 0.383722,-0.17408 0.420932,-0.2599 0.238672,-0.55048 -0.159863,-0.25486 -0.161284,-0.39864 -0.0055,-0.55378 0.289785,-0.28853 0.996888,-0.0329 0.996888,0.36036 0,0.30555 1.457504,1.88999 1.738576,1.88999 0.07332,0 0.133306,-0.12108 0.133306,-0.26901 0,-0.14794 0.172636,-0.38937 0.383637,-0.53652 0.29091,-0.20288 0.353871,-0.38563 0.260489,-0.75606 -0.145655,-0.57782 0.104117,-0.6442 0.435562,-0.11581 0.235307,0.37515 0.862493,0.4739 1.658634,0.26119 0.312187,-0.0834 0.389987,-0.2342 0.359295,-0.69635 -0.02155,-0.32444 0.04027,-0.69374 0.137381,-0.82065 0.168791,-0.22062 0.07794,-0.28488 -0.732722,-0.51834 -0.116579,-0.0335 -0.326728,-0.31921 -0.46701,-0.63475 -0.282558,-0.63556 -0.600002,-0.66214 -0.689621,-0.0578 -0.03762,0.25372 0.104998,0.49948 0.402455,0.69353 0.352038,0.22965 0.460763,0.46325 0.460904,0.99024 1.87e-4,1.0178 -0.669668,1.33837 -1.051815,0.50331 -0.164541,-0.35957 -0.353819,-0.46594 -0.829037,-0.46594 -0.465279,0 -0.689216,-0.12046 -0.916072,-0.4927 -0.284421,-0.4667 -0.276176,-0.52802 0.156313,-1.16256 0.341855,-0.50156 0.428811,-0.81719 0.346087,-1.25623 -0.114021,-0.60515 0.09496,-0.8173 0.802786,-0.81494 0.430947,0.001 1.563334,0.33386 1.903368,0.55875 0.249584,0.16507 0.249584,0.20641 0,0.37208 -0.249583,0.16566 -0.249583,0.20677 0,0.36989 0.448022,0.29282 0.748753,0.21911 0.748753,-0.18352 0,-0.20708 0.124793,-0.37275 0.280783,-0.37275 0.15443,0 0.280781,-0.0956 0.280781,-0.21242 0,-0.11679 0.137079,-0.31221 0.304618,-0.43419 0.269341,-0.19609 0.210255,-0.31717 -0.510206,-1.0456 -0.678759,-0.68626 -0.82633,-0.76605 -0.883736,-0.47788 -0.0379,0.19027 0.02322,0.43769 0.135829,0.5498 0.479889,0.4778 0.154663,0.52403 -0.343511,0.0489 -0.489639,-0.46706 -2.836803,-1.60028 -2.484758,-1.60028 0.07401,0 2.959402,0.63249 3.815792,0.94579 1.886582,0.69018 4.679458,2.14801 6.330371,3.30431 1.693841,1.18638 5.166363,4.70108 6.304823,6.38142 1.32965,1.96252 2.93371,5.22327 3.42099,6.95422 0.44612,1.58477 1.32602,5.63188 0.85644,4.46342 -0.39017,-0.9709 -1.69684,-4.89941 -2.36593,-4.89941 -0.30513,0 -0.7587,-0.13303 -1.00793,-0.29563 -0.24923,-0.16258 -0.53961,-0.24242 -0.64527,-0.17741 -0.10564,0.065 -0.50635,-0.0944 -0.89044,-0.35425 -1.27583,-0.86318 -1.23246,-0.0157 0.0548,1.0713 0.48594,0.4103 0.6949,0.4837 0.96596,0.33926 0.56335,-0.30019 1.54282,0.57489 1.54282,1.37839 0,0.94317 -0.29241,1.40505 -1.44235,2.27833 -1.16469,0.88447 -1.45145,0.95588 -1.73326,0.4316 z m -0.10358,-8.95269 c 0.0618,-0.0995 -0.0175,-0.4308 -0.17614,-0.73625 -0.15864,-0.30543 -0.28843,-0.72553 -0.28843,-0.93355 0,-0.25361 -0.24667,-0.5035 -0.74876,-0.75853 -0.498702,-0.25331 -0.748749,-0.50549 -0.748749,-0.75513 0,-0.46596 -0.473105,-0.66823 -0.84473,-0.36114 -0.503413,0.41597 -0.325852,1.06074 0.466769,1.69493 0.409841,0.32793 0.798861,0.77218 0.864487,0.98724 0.256293,0.83989 1.161223,1.3688 1.475553,0.86243 z m -4.348728,-1.10742 c 0.328565,-0.0381 0.100493,-0.55732 -0.374377,-0.85225 -0.283121,-0.17583 -0.694964,-0.53164 -0.915205,-0.79069 -0.402428,-0.47332 -0.932768,-0.4354 -0.744439,0.0533 0.07902,0.20503 0.0083,0.21226 -0.375021,0.0383 -0.518851,-0.23537 -0.811496,10e-4 -0.817089,0.66204 -0.0072,0.85762 0.285715,1.02106 1.724057,0.96175 0.748925,-0.0309 1.424859,-0.0635 1.502074,-0.0725 z m -58.781724,0.31246 0.05143,-3.02601 0.825762,-0.4303 c 0.422123,-0.25704 0.934196,-0.58421 1.315852,-0.59992 0.131505,0 0.198235,1.03412 0.198235,3.07201 v 3.07202 l -0.929718,0.46908 c -1.573413,0.79383 -1.520107,0.88709 -1.461568,-2.55693 z m 33.04335,0.47971 c 0.128692,-0.0517 0.339279,-0.0517 0.467971,0 0.128692,0.0517 0.02339,0.094 -0.233985,0.094 -0.257384,0 -0.362678,-0.0423 -0.233986,-0.094 z m -3.057796,-0.31677 c -0.0538,-0.13962 -0.07223,-0.74287 -0.04092,-1.34056 l 0.05691,-1.08672 1.027819,-0.61352 c 0.701284,-0.4186 1.070998,-0.77427 1.163736,-1.11952 0.07475,-0.2783 0.09399,-0.54774 0.04276,-0.59877 -0.118428,-0.11789 -1.16694,0.47562 -1.723067,0.97537 -0.418357,0.37596 -0.492376,0.37831 -4.960485,0.15755 -2.494685,-0.12325 -7.020715,-0.34572 -10.057842,-0.49436 -7.015406,-0.34337 -11.99733,-0.65408 -12.34391,-0.76984 -0.187121,-0.0626 -0.08495,-0.20249 0.332104,-0.45501 0.509578,-0.36441 0.37501,-0.35171 1.218725,-0.95134 0.717621,-0.45166 1.297824,-0.49533 3.689241,-0.33957 1.281793,0.0835 4.081949,0.25598 6.222571,0.38332 2.14062,0.12734 3.813227,0.2806 3.716902,0.34057 -0.09633,0.06 1.27732,0.10908 3.052547,0.10908 h 3.227685 l 0.74403,-0.66884 c 2.329878,-2.09437 6.948443,-4.63991 9.258,-5.10257 l 2.97585,-0.54671 -2.13961,0.91725 c -0.366196,0.15699 -0.936339,0.23134 -1.088281,0.23134 -0.151942,0 -0.895798,0.13313 -0.895798,0.24163 0,0.10858 0.09321,0.14002 0.207139,0.0699 0.209655,-0.12902 1.467865,0.1759 2.105766,0.5103 0.264265,0.13852 0.44638,0.0896 0.760816,-0.20454 0.227365,-0.21268 0.500198,-0.38667 0.606297,-0.38667 0.1061,0 0.348062,-0.1707 0.537691,-0.37932 0.189629,-0.20863 0.453084,-0.33794 0.585453,-0.28737 0.13237,0.0506 0.364006,-0.0834 0.514745,-0.29763 0.26204,-0.37248 0.374129,-0.38365 2.552637,-0.25419 2.139531,0.12714 3.642124,0.46424 3.221898,0.72283 -0.102402,0.063 -0.241497,0.52974 -0.309105,1.03717 -0.121659,0.91317 -0.132644,0.92582 -1.071292,1.23624 -0.521601,0.1725 -1.233119,0.56256 -1.58115,0.86681 -0.844009,0.73782 -1.280908,0.64145 -1.358406,-0.29962 -0.04275,-0.5191 0.05466,-0.8814 0.340487,-1.26631 0.490798,-0.66094 0.569038,-1.42671 0.172056,-1.68395 -0.40147,-0.26017 -2.043763,-0.007 -2.043763,0.31438 0,0.13493 0.117019,0.34201 0.260052,0.4602 0.409147,0.33809 0.496781,1.14568 0.137983,1.27157 -0.167441,0.0588 -0.449693,0.23094 -0.627225,0.38263 -0.285903,0.24429 -0.376796,0.24055 -0.795549,-0.0327 -0.55978,-0.36519 -0.613899,-0.67258 -0.118415,-0.67258 0.293495,0 0.581592,-0.33068 0.581592,-0.66756 0,-0.21886 -0.823495,-0.0252 -1.649702,0.38799 -0.51244,0.25627 -1.095482,0.46594 -1.29565,0.46594 -0.536541,0 -1.066705,1.27237 -0.69085,1.65801 0.03958,0.0406 0.450865,-0.27388 0.913961,-0.69889 0.981007,-0.90032 1.411924,-0.98864 1.411924,-0.28936 0,0.32534 0.121427,0.51499 0.371391,0.58008 0.230651,0.0601 0.443061,0.3536 0.56052,0.77463 0.335223,1.20161 0.27922,1.32733 -0.604333,1.35664 -1.781282,0.0591 -1.734691,0.0469 -1.671748,0.43954 0.03286,0.20501 0.200917,0.4809 0.373464,0.61307 0.27445,0.21024 0.278688,0.26238 0.03385,0.41649 -0.356969,0.22469 -0.995059,0.23149 -1.225172,0.0131 -0.106552,-0.10112 -0.439162,-0.0825 -0.829803,0.0466 -0.962692,0.31804 -1.509892,1.41898 -1.639254,3.29812 l -0.102121,1.48342 h -1.00866 c -0.678478,0 -1.040687,-0.0831 -1.106495,-0.25384 z m -2.499003,-6.03607 c 0.121133,-0.34536 0.519033,-0.69489 1.219975,-1.07164 1.185603,-0.63727 1.670632,-1.09425 1.482721,-1.39698 -0.253539,-0.40844 -1.292008,0.0148 -1.987673,0.81024 -0.39184,0.448 -1.160846,1.00418 -1.826299,1.32085 -1.26306,0.60106 -1.2271,0.8424 0.126227,0.8472 0.71127,0.002 0.826275,-0.0569 0.985049,-0.50967 z m 3.876005,-1.12989 c 0.112306,-0.33545 -0.274606,-0.26496 -0.405173,0.0738 -0.06996,0.18151 -0.02812,0.26671 0.10867,0.22132 0.122333,-0.0406 0.255758,-0.17342 0.296509,-0.29514 z m 1.633997,-3.38967 c 0.06363,-0.10246 0.03145,-0.18637 -0.0715,-0.18637 -0.102954,0 -0.239247,0.0839 -0.302876,0.18637 -0.06363,0.10247 -0.03145,0.18638 0.07151,0.18638 0.102953,0 0.239246,-0.0838 0.302875,-0.18638 z m 4.224848,5.56533 c -0.42597,-0.16229 -0.434886,-0.19319 -0.14039,-0.4864 0.294493,-0.2932 0.334758,-0.29289 0.634021,0.005 0.420419,0.41859 0.11735,0.71411 -0.493631,0.48133 z m 6.912848,-3.42203 c 0,-0.15376 0.126353,-0.27956 0.280783,-0.27956 0.15443,0 0.280783,0.1258 0.280783,0.27956 0,0.15375 -0.126353,0.27956 -0.280783,0.27956 -0.15443,0 -0.280783,-0.12581 -0.280783,-0.27956 z m -7.973048,-2.35795 c -0.07328,-0.11801 0.0209,-0.32685 0.209273,-0.464 0.420411,-0.30607 0.479115,-0.25998 0.340587,0.26745 -0.118366,0.45065 -0.342421,0.53074 -0.54986,0.19655 z"
       id="path656" /><path
       style="fill:#f58e1a;stroke-width:0.18678"
       d="m 77.015841,162.7733 c -1.324213,-0.13022 -1.876964,-0.26643 -2.164729,-0.53341 -0.212543,-0.19719 -0.528423,-0.35852 -0.701955,-0.35852 -0.205286,0 -0.315516,-0.15115 -0.315516,-0.43265 0,-0.23796 -0.160886,-0.76198 -0.357525,-1.16449 l -0.357525,-0.73183 1.059481,-0.23668 c 0.582714,-0.13018 1.58616,-0.40981 2.229875,-0.62141 l 1.170396,-0.38473 1.169456,1.02364 c 0.643203,0.563 1.341934,1.2199 1.552738,1.45975 0.210803,0.23984 0.830616,0.83447 1.377358,1.32137 l 0.994081,0.88527 -1.938924,-0.0257 c -1.066408,-0.0141 -2.739153,-0.10442 -3.717211,-0.2006 z m 16.733992,-2.07387 c -0.319502,-0.32373 -2.446428,-2.34573 -4.726502,-4.49334 -2.280073,-2.1476 -4.145587,-3.93218 -4.145587,-3.96574 0,-0.2744 1.217392,-2.36378 1.598168,-2.7429 0.264826,-0.26367 0.610654,-0.78716 0.768507,-1.16331 0.271448,-0.64684 0.266346,-0.69978 -0.09414,-0.97668 -0.369907,-0.28414 -0.372663,-0.33122 -0.09349,-1.59738 0.212511,-0.96382 0.263876,-1.96367 0.196634,-3.82763 l -0.09102,-2.52301 0.682752,-0.24193 c 1.174224,-0.41608 1.812843,-0.45606 2.136575,-0.13373 0.163748,0.16303 0.55348,0.29642 0.866073,0.29642 0.725455,0 1.001861,0.48686 0.841894,1.48288 -0.100909,0.6283 -0.0419,0.85244 0.363833,1.38207 1.074649,1.40281 1.222671,2.3342 0.662876,4.17107 -0.225348,0.73943 -0.207581,0.86142 0.265232,1.82126 0.278715,0.56582 0.506755,1.32378 0.506755,1.68436 0,0.36059 0.16847,0.9844 0.374376,1.38625 0.205907,0.40185 0.374378,0.98064 0.374378,1.28619 0,0.71198 0.202877,0.82447 1.07248,0.59464 0.388194,-0.10258 0.935908,-0.23348 1.217141,-0.29087 0.766234,-0.15638 1.73191,-1.10032 2.175169,-2.12622 0.216662,-0.50145 0.522119,-0.9607 0.678797,-1.02056 0.199369,-0.0761 0.284869,-0.37291 0.284869,-0.9887 0,-0.82227 0.06433,-0.93909 0.982737,-1.78472 0.96839,-0.89166 0.98237,-0.91993 0.95789,-1.93701 -0.0137,-0.56767 -0.11899,-1.12584 -0.23398,-1.24037 -0.34359,-0.3421 -0.24004,-1.76515 0.18997,-2.61055 0.21952,-0.43156 0.67805,-1.09418 1.01897,-1.47246 0.67299,-0.74675 1.20254,-2.22332 1.20254,-3.35305 0,-0.80213 0.0242,-0.78971 -0.96526,-0.49453 l -0.72792,0.21714 -0.93271,-1.00923 c -0.513,-0.55508 -1.15625,-1.38664 -1.42946,-1.84791 -0.273208,-0.46127 -0.819588,-1.23032 -1.214177,-1.70899 -0.659915,-0.80054 -0.708286,-0.93679 -0.603305,-1.69938 0.06278,-0.45598 0.04103,-0.87154 -0.04832,-0.92347 -0.08935,-0.0519 -0.625742,-0.0324 -1.191987,0.0433 -0.696332,0.0932 -1.302154,0.0561 -1.871881,-0.11458 -1.149916,-0.34439 -1.293245,-0.32529 -1.493481,0.19909 -0.152187,0.39853 -0.239249,0.43447 -0.697323,0.28785 -1.619539,-0.51837 -2.341389,-0.82075 -2.396144,-1.00372 -0.03381,-0.11299 -0.11522,-0.44789 -0.180883,-0.74418 l -0.119395,-0.53871 -1.318461,0.11006 c -0.770135,0.0643 -1.624636,0.26895 -2.054667,0.49212 -0.404915,0.21013 -1.013752,0.38206 -1.352972,0.38206 -0.776942,0 -1.430776,0.64953 -1.430776,1.42135 0,0.40754 -0.155566,0.67316 -0.575083,0.98199 l -0.575085,0.42332 -1.062813,-0.9973 c -1.447775,-1.35855 -3.235826,-2.4719 -5.211837,-3.24521 -1.582309,-0.61922 -4.15879,-1.19338 -5.355246,-1.19338 h -0.56379 l 0.102121,-1.48341 c 0.129361,-1.87914 0.676561,-2.98008 1.639254,-3.29812 0.39064,-0.12906 0.723254,-0.14774 0.829803,-0.0466 0.230112,0.21841 0.868203,0.21161 1.225171,-0.0131 0.244835,-0.15411 0.240597,-0.20625 -0.03385,-0.41649 -0.172547,-0.13218 -0.340606,-0.40806 -0.373465,-0.61307 -0.06295,-0.39272 -0.109539,-0.38048 1.671749,-0.43954 0.883553,-0.0293 0.939555,-0.15503 0.604332,-1.35664 -0.11746,-0.42103 -0.329869,-0.71459 -0.56052,-0.77464 -0.24997,-0.0651 -0.37139,-0.25474 -0.37139,-0.58009 0,-0.69927 -0.430918,-0.61096 -1.411924,0.28936 -0.463096,0.42501 -0.874378,0.73952 -0.913962,0.6989 -0.375855,-0.38563 0.154309,-1.65801 0.69085,-1.65801 0.200168,0 0.783211,-0.20967 1.29565,-0.46593 1.088571,-0.54438 1.747566,-0.61593 1.576135,-0.17113 -0.06249,0.16213 -0.113616,0.32987 -0.113616,0.37274 0,0.0429 -0.168469,0.078 -0.374376,0.078 -0.513714,0 -0.469523,0.30209 0.09839,0.67258 0.418753,0.27318 0.509646,0.27691 0.79555,0.0327 0.177531,-0.15169 0.459783,-0.32387 0.627224,-0.38262 0.358799,-0.1259 0.271164,-0.93349 -0.137982,-1.27158 -0.143029,-0.11813 -0.260053,-0.32527 -0.260053,-0.4602 0,-0.32191 1.642294,-0.57455 2.043764,-0.31438 0.396982,0.25725 0.318742,1.02301 -0.172056,1.68395 -0.285823,0.38492 -0.383238,0.74721 -0.340488,1.26632 0.0775,0.94106 0.514397,1.03743 1.358407,0.29961 0.34803,-0.30425 1.059548,-0.69431 1.581149,-0.8668 0.938649,-0.31041 0.949627,-0.32308 1.071292,-1.23623 0.06761,-0.50744 0.206705,-0.97417 0.309106,-1.03718 0.420225,-0.25858 -1.082368,-0.5957 -3.221899,-0.72284 -2.178507,-0.12946 -2.290597,-0.11826 -2.552636,0.25419 -0.15074,0.21428 -0.382375,0.34822 -0.514746,0.29763 -0.132369,-0.0506 -0.395824,0.0787 -0.585453,0.28738 -0.189629,0.20862 -0.431591,0.37931 -0.53769,0.37931 -0.1061,0 -0.378933,0.17401 -0.606297,0.38667 -0.314437,0.29411 -0.496552,0.34308 -0.760817,0.20454 -0.637901,-0.3344 -1.89611,-0.63931 -2.105766,-0.51029 -0.113922,0.0701 -0.207138,0.0387 -0.207138,-0.0699 0,-0.10859 0.121536,-0.19738 0.270082,-0.19738 0.148544,0 0.555136,-0.16745 0.903537,-0.37212 0.970169,-0.56992 3.244236,-1.07833 5.887528,-1.31626 2.503146,-0.22533 4.214044,-0.15254 7.136821,0.3036 1.909986,0.29808 2.496853,0.5178 2.356398,0.88222 -0.05029,0.1305 0.16343,0.48038 0.474941,0.77753 0.510416,0.48688 0.852371,0.45707 0.361638,-0.0316 -0.112612,-0.11213 -0.173731,-0.35953 -0.135829,-0.5498 0.0574,-0.28818 0.204977,-0.20838 0.883735,0.47788 0.720462,0.72842 0.779548,0.84951 0.510207,1.0456 -0.167539,0.12193 -0.304618,0.31736 -0.304618,0.43419 0,0.11679 -0.126351,0.21242 -0.280781,0.21242 -0.15599,0 -0.280783,0.16567 -0.280783,0.37275 0,0.40264 -0.300731,0.47634 -0.748753,0.18352 -0.249583,-0.16313 -0.249583,-0.20423 0,-0.3699 0.249584,-0.16567 0.249584,-0.20701 0,-0.37208 -0.340034,-0.22489 -1.472421,-0.5573 -1.903368,-0.55874 -0.707824,-0.002 -0.916809,0.20979 -0.802787,0.81494 0.08273,0.43904 -0.0043,0.75467 -0.346086,1.25623 -0.432489,0.63453 -0.440734,0.69585 -0.156313,1.16255 0.226856,0.37226 0.450793,0.4927 0.916072,0.4927 0.475218,0 0.664496,0.10638 0.829037,0.46593 0.382147,0.83508 1.052084,0.5145 1.051815,-0.50329 -1.41e-4,-0.52699 -0.108866,-0.76059 -0.460904,-0.99024 -0.297451,-0.19406 -0.440072,-0.43983 -0.402455,-0.69352 0.08962,-0.60442 0.407063,-0.57785 0.689621,0.0578 0.140282,0.31553 0.371494,0.60921 0.513806,0.65262 0.828019,0.25255 0.858558,0.27483 0.685926,0.50046 -0.0971,0.12692 -0.158927,0.49622 -0.137382,0.82065 0.03069,0.46215 -0.04711,0.61295 -0.359294,0.69635 -0.796142,0.21273 -1.423327,0.11397 -1.658634,-0.26118 -0.33145,-0.52843 -0.581217,-0.46204 -0.435562,0.11581 0.09338,0.37044 0.03042,0.55318 -0.260489,0.75605 -0.211001,0.14715 -0.383638,0.38859 -0.383638,0.53654 0,0.14794 -0.05998,0.26899 -0.133305,0.26899 -0.281072,0 -1.738576,-1.58442 -1.738576,-1.88998 0,-0.39328 -0.707103,-0.64889 -0.996893,-0.36036 -0.155815,0.15514 -0.154394,0.29892 0.0055,0.55378 0.18226,0.29057 0.14505,0.3764 -0.238672,0.55048 -0.250029,0.11348 -0.454598,0.32696 -0.454598,0.47453 0,0.14757 -0.05113,0.40098 -0.113616,0.56312 -0.08056,0.20902 -0.0033,0.29481 0.265472,0.29481 0.663059,0 0.971279,-0.21333 0.971279,-0.67225 0,-0.2453 0.08156,-0.44599 0.18123,-0.44599 0.10326,0 0.143678,0.36949 0.09396,0.85878 -0.08295,0.8162 -0.0664,0.85326 0.333537,0.74696 1.304528,-0.34672 1.367253,-0.3338 0.638115,0.13147 l -0.718642,0.45856 0.586727,0.34507 c 0.480396,0.28254 0.57671,0.44667 0.531454,0.90564 -0.05324,0.53991 -0.08924,0.56054 -0.978267,0.56054 h -0.922994 l -0.03008,1.23258 c -0.02967,1.21591 -0.02201,1.23621 0.566266,1.5017 0.982268,0.44327 2.339336,-0.22782 2.339336,-1.15684 0,-0.16954 0.165127,-0.45703 0.366948,-0.63889 0.20182,-0.18184 0.34923,-0.4205 0.327578,-0.53034 -0.02166,-0.1098 0.129102,-0.22997 0.335009,-0.26698 0.205907,-0.037 0.572371,-0.16549 0.814366,-0.28555 0.362131,-0.17966 0.47947,-0.16453 0.663102,0.0856 0.12271,0.16709 0.64069,0.54808 1.151064,0.84663 0.922342,0.53955 1.328678,1.16909 0.754583,1.16909 -0.161977,0 -0.294506,0.0839 -0.294506,0.18638 0,0.32691 0.54109,0.19996 0.742167,-0.17412 0.353413,-0.65749 0.190672,-1.02633 -0.704364,-1.59642 -0.482796,-0.30753 -0.907129,-0.71394 -0.942962,-0.90316 -0.05759,-0.30408 0.04012,-0.28481 0.841178,0.1659 0.935833,0.52654 0.997275,0.58158 2.164978,1.93937 0.570131,0.66295 0.71915,0.75331 0.818251,0.49618 0.07026,-0.18229 -0.01288,-0.46184 -0.197847,-0.66535 -0.302585,-0.33289 -0.297009,-0.3627 0.108267,-0.57866 0.374732,-0.19967 0.462982,-0.17409 0.717487,0.20803 0.747933,1.12292 0.839187,1.1763 1.935816,1.13212 0.9195,-0.037 1.073193,0.01 1.27404,0.3828 0.125622,0.2337 0.425611,0.57935 0.666645,0.76814 0.411288,0.3221 0.637793,0.8337 0.268512,0.60647 -0.09336,-0.0574 -0.127981,0.0843 -0.07695,0.31515 0.195966,0.88624 0.219624,0.91305 0.61828,0.70063 0.318203,-0.16956 0.377154,-0.14411 0.377154,0.16281 0,0.20007 -0.10501,0.39862 -0.23336,0.44122 -0.15587,0.0518 -0.04709,0.3112 0.327579,0.78135 1.445807,1.81432 2.142337,2.83462 2.146977,3.14495 0.007,0.48907 0.35231,1.05939 0.64084,1.05939 0.38206,0 2.3092,-1.5304 2.53395,-2.01228 0.39613,-0.84939 0.24781,-1.65065 -0.39881,-2.1545 -0.46186,-0.35988 -0.67743,-0.42426 -0.94435,-0.28204 -0.27107,0.14444 -0.48002,0.071 -0.96596,-0.33925 -1.28728,-1.08693 -1.33065,-1.93448 -0.0548,-1.07131 0.38409,0.25986 0.78478,0.41928 0.89044,0.35427 0.10565,-0.065 0.39603,0.0148 0.64526,0.17741 0.24923,0.16259 0.68776,0.29691 0.97451,0.29848 0.75109,0.004 0.92115,0.16372 1.54864,1.45345 0.75604,1.55396 1.12369,3.94872 1.12462,7.32542 0.001,5.48056 -1.37242,10.02199 -4.43405,14.65647 -1.77363,2.68477 -6.660402,7.24577 -8.310537,7.75651 -0.145326,0.0449 -0.525641,-0.18309 -0.845143,-0.50682 z m 9.358007,-11.16529 c 0.24765,-0.38655 1.42834,-3.72284 1.42179,-4.01763 -10e-4,-0.071 -0.0768,-0.2454 -0.16715,-0.38746 -0.12645,-0.19879 -0.38553,-0.0273 -1.12512,0.74473 -0.84175,0.87869 -0.9557,1.08984 -0.91934,1.70347 0.0229,0.38524 -0.0593,0.80074 -0.18232,0.9233 -0.23961,0.23857 -0.30554,1.12308 -0.099,1.32868 0.26098,0.25984 0.81309,0.10773 1.07118,-0.29509 z M 76.02508,119.62656 c -0.299263,-0.29797 -0.339528,-0.29828 -0.634021,-0.005 -0.294496,0.29322 -0.28558,0.32412 0.14039,0.48641 0.610975,0.23277 0.91405,-0.0627 0.493631,-0.48133 z m 6.980783,-2.94071 c 0,-0.15376 -0.126353,-0.27956 -0.280783,-0.27956 -0.15443,0 -0.280783,0.1258 -0.280783,0.27956 0,0.15375 0.126353,0.27956 0.280783,0.27956 0.15443,0 0.280783,-0.12581 0.280783,-0.27956 z m -7.984754,-2.5545 c 0.138528,-0.52743 0.07983,-0.57352 -0.340587,-0.26745 -0.188381,0.13715 -0.282553,0.34596 -0.209273,0.464 0.207439,0.33419 0.431499,0.2541 0.54986,-0.19655 z m 55.076031,45.87951 c 0.24298,-0.39791 0.43861,-0.77404 0.63139,-1.19614 l 22.09852,0.0278 c 0,0 -0.98242,1.11366 -1.00599,1.17503 l -21.72392,-0.007 z m -13.30381,-5.21896 c -2.63051,-0.53689 -4.64251,-2.01125 -5.60409,-4.10656 -1.47662,-3.21763 -0.98735,-7.3401 1.15081,-9.69649 2.14987,-2.36929 6.79464,-3.24344 10.67727,-2.00946 0.59407,0.1888 0.60837,0.21873 0.60837,1.27384 0,0.59427 -0.0512,1.33497 -0.1136,1.64601 l -0.11361,0.56552 -1.05632,-0.37618 c -1.50908,-0.53741 -4.11276,-0.54969 -5.28113,-0.025 -1.76052,0.79075 -2.796,2.49689 -2.7937,4.60309 0.002,2.19313 0.89257,3.71286 2.69119,4.59447 1.16638,0.57171 1.31121,0.59765 2.87142,0.51443 1.00894,-0.0539 2.07405,-0.24253 2.75973,-0.48897 0.61415,-0.22073 1.12394,-0.40134 1.13288,-0.40134 0.009,0 0.0384,0.70697 0.0656,1.57103 0.0457,1.4534 0.0186,1.58746 -0.36228,1.7904 -1.09438,0.58314 -4.90988,0.89674 -6.63259,0.54513 z m 13.3869,-6.18963 c 0.023,-3.3058 0.0318,-6.19923 0.0195,-6.42988 -0.022,-0.41222 -0.0638,-0.41933 -2.45587,-0.41933 h -2.43345 v -1.00176 c 0,-0.55097 0.0486,-1.24287 0.10785,-1.53758 l 0.10785,-0.53583 6.67771,0.0206 c 4.87227,0.0151 6.67264,0.078 6.65898,0.23296 -0.01,0.11679 -0.0313,0.79948 -0.0468,1.51701 l -0.028,1.30462 h -2.31982 c -1.9427,0 -2.33831,0.048 -2.43345,0.29479 -0.0626,0.16214 -0.11361,3.05559 -0.11361,6.42988 v 6.13508 h -1.89134 -1.89135 z m -74.856695,-22.09318 -1.569578,-0.0546 0.102463,-1.12503 c 0.05635,-0.61875 0.135018,-1.15743 0.174812,-1.19705 0.0398,-0.0397 0.809747,-0.0202 1.711011,0.0431 l 1.63866,0.11508 -0.124836,1.04327 c -0.06866,0.57379 -0.178413,1.0852 -0.243893,1.13645 -0.06548,0.0513 -0.825367,0.0687 -1.688634,0.0387 z m -6.058342,-0.35851 c -0.477703,-0.0721 -0.514561,-0.14049 -0.511901,-0.95053 0.0044,-1.32867 0.06191,-1.3647 1.948891,-1.22028 l 1.644346,0.12584 -0.111302,0.66989 c -0.06121,0.36844 -0.112221,0.8586 -0.113359,1.08923 -0.002,0.39293 -0.07577,0.41758 -1.171987,0.39142 -0.64346,-0.0153 -1.401572,-0.0629 -1.684694,-0.10552 z m -4.024545,-0.2002 -1.544303,-0.0541 v -1.11769 -1.1177 l 1.731491,0.0536 1.731491,0.0536 -0.06183,1.02505 c -0.03401,0.56379 -0.118243,1.06699 -0.187188,1.11824 -0.06895,0.0513 -0.820288,0.0688 -1.669655,0.0391 z m 55.131272,-0.36521 c -0.15821,-0.17938 -0.34134,-0.50211 -0.406972,-0.71716 -0.06563,-0.21507 -0.454646,-0.65932 -0.864487,-0.98724 -0.792621,-0.6342 -0.970182,-1.27896 -0.466768,-1.69494 0.371624,-0.30709 0.844729,-0.10479 0.844729,0.36114 0,0.24964 0.250047,0.50182 0.748748,0.75513 0.50209,0.25503 0.74876,0.50492 0.74876,0.75854 0,0.20801 0.12979,0.62811 0.28843,0.93354 0.15864,0.30545 0.2379,0.63675 0.17614,0.73625 -0.17894,0.28826 -0.75533,0.20991 -1.06858,-0.14526 z m -6.326522,-1.17333 c -0.227322,-0.4229 -0.229694,-0.93346 -0.006,-1.28552 0.137303,-0.21606 0.26382,-0.22682 0.643306,-0.0547 0.383384,0.17393 0.454043,0.16671 0.37502,-0.0383 -0.188329,-0.48864 0.342011,-0.52657 0.74444,-0.0533 0.220241,0.25903 0.632083,0.61484 0.915204,0.79068 0.474873,0.29492 0.702942,0.81411 0.374377,0.85224 -0.07721,0.009 -0.753148,0.0416 -1.502073,0.0725 -1.16114,0.0479 -1.388575,0.006 -1.544302,-0.2836 z m -30.274336,-4.99158 c -0.156242,-0.0988 0.150683,-0.33232 0.914261,-0.69568 0.665453,-0.31667 1.434459,-0.87285 1.826299,-1.32085 0.695665,-0.79537 1.734134,-1.21868 1.987673,-0.81024 0.187911,0.30273 -0.297118,0.75971 -1.482721,1.39698 -0.700942,0.37675 -1.098843,0.72628 -1.219975,1.07164 -0.158774,0.45269 -0.273779,0.51219 -0.985049,0.50967 -0.442909,-0.001 -0.911128,-0.0698 -1.040488,-0.15152 z m 5.496369,-1.41422 c 0.06257,-0.16233 0.19599,-0.29514 0.296508,-0.29514 0.246039,0 0.09197,0.42359 -0.187844,0.51646 -0.136787,0.0454 -0.178621,-0.0398 -0.10867,-0.22132 z m 1.664794,-3.46349 c 0.06363,-0.10246 0.199922,-0.18637 0.302875,-0.18637 0.102954,0 0.13513,0.0839 0.0715,0.18637 -0.06363,0.10247 -0.199922,0.18638 -0.302876,0.18638 -0.102953,0 -0.13513,-0.0838 -0.0715,-0.18638 z"
       id="path658" /><path
       style="fill:#e6e6e6;stroke-width:0.18678"
       d="m 90.119012,167.4559 c -0.422365,-0.16193 -10.856913,-10.53164 -10.856913,-10.78944 0,-0.28882 1.1483,-0.50744 1.902841,-0.36226 0.446261,0.0858 1.028688,0.15977 1.294276,0.16422 l 0.48289,0.009 -0.250933,-1.21489 c -0.220842,-1.06923 -0.215676,-1.26848 0.04309,-1.6617 l 0.294029,-0.44679 1.058398,0.9628 c 7.143622,6.49835 9.906777,9.18949 10.015197,9.75416 0.229919,1.19753 -0.737446,2.70894 -2.178324,3.40342 -0.880269,0.42428 -1.112395,0.44773 -1.804556,0.18237 z m 10.486698,-7.57804 c 0,0 0.67464,-1.02526 0.72308,-1.07165 l 29.41005,0.0124 c -0.17346,0.45295 -0.38477,0.76499 -0.64228,1.19902 l -29.49085,-0.1398 z m -31.919744,-2.02782 c -2.763397,-0.31821 -4.378963,-0.81652 -6.619099,-2.04165 -4.095557,-2.23985 -6.887608,-6.00326 -7.807603,-10.52387 -0.485743,-2.38679 -0.300726,-5.53634 0.452413,-7.70145 1.684887,-4.84368 5.672395,-8.60472 10.643932,-10.03942 1.974366,-0.56977 6.770447,-0.60524 8.66522,-0.064 3.068373,0.87635 5.516182,2.3833 7.695788,4.73778 2.735802,2.9553 3.966143,6.24593 3.948576,10.56075 -0.01826,4.48672 -2.081603,8.71159 -5.65921,11.58777 -1.555128,1.25023 -4.195001,2.58283 -5.985154,3.02131 -1.388107,0.33999 -4.247451,0.58807 -5.334863,0.46285 z m 4.649298,-2.97146 c 5.612598,-1.43585 9.677277,-6.67295 9.667832,-12.45643 -0.0036,-2.13927 -0.369673,-3.6954 -1.339921,-5.69419 -0.620335,-1.27795 -1.071692,-1.8801 -2.378885,-3.17364 -3.744361,-3.70526 -8.873506,-4.90208 -13.872319,-3.2369 -6.183653,2.05985 -9.991248,8.71263 -8.452943,14.76933 0.660669,2.60122 1.530103,4.14514 3.373235,5.99014 3.620259,3.62392 8.323166,4.9989 13.003001,3.80169 z M 60.168905,141.47349 v -4.00702 h 1.979874 c 1.938699,0 1.991255,0.011 2.527041,0.54479 l 0.547165,0.54478 v 2.80116 c 0,1.65598 -0.08497,2.98684 -0.207829,3.25532 -0.314057,0.68628 -0.938612,0.868 -2.983176,0.868 h -1.863075 z m 2.766307,-5.5e-4 c -0.03144,-1.5189 -0.126287,-2.51658 -0.239267,-2.51658 -0.112979,0 -0.207835,0.99768 -0.239268,2.51658 -0.04503,2.17549 -0.01259,2.5166 0.239268,2.5166 0.251858,0 0.284288,-0.34111 0.239267,-2.51659 z m 3.972467,1.11879 c 0,-2.72348 -0.02054,-2.88878 -0.359066,-2.88878 -0.627581,0 -0.951418,-0.21424 -0.94569,-0.62565 0.0073,-0.53034 2.052831,-1.54466 2.942653,-1.45924 l 0.608361,0.0584 v 3.90203 3.90204 h -1.123129 -1.123129 z m 3.542177,2.344 -0.547166,-0.54477 v -2.9709 c 0,-2.96143 0.0015,-2.97246 0.493495,-3.46224 0.618495,-0.6158 2.274527,-0.75309 3.459228,-0.28679 0.844397,0.33237 0.989769,0.88323 0.999156,3.78622 0.01188,3.66011 -0.226033,4.02327 -2.635234,4.02327 -1.101395,0 -1.276444,-0.0539 -1.769479,-0.54479 z m 2.147036,-1.05463 c 0.208905,-0.54202 0.127154,-4.89332 -0.09449,-5.0297 -0.383579,-0.23604 -0.534898,0.37301 -0.535711,2.15616 -0.0011,2.58504 0.268131,3.81299 0.630206,2.87354 z m 3.488776,1.07472 -0.567332,-0.56486 v -2.80117 c 0,-1.65597 0.08497,-2.98684 0.207829,-3.25531 0.288702,-0.63087 0.92077,-0.86801 2.313657,-0.86801 1.010952,0 1.281662,0.0738 1.769478,0.4825 l 0.575928,0.4825 v 2.95501 c 0,2.84775 -0.01624,2.97382 -0.447756,3.4733 -0.402517,0.46591 -0.591062,0.52548 -1.866113,0.58959 -1.371565,0.0689 -1.437073,0.0526 -1.985691,-0.49355 z m 2.159391,-1.22906 c 0.157846,-0.62617 0.02076,-4.89267 -0.163064,-5.07505 -0.338148,-0.3355 -0.49901,0.51952 -0.501724,2.66677 -0.0015,1.2473 0.04827,2.40049 0.110751,2.56262 0.166399,0.43174 0.424411,0.35986 0.554033,-0.15434 z m 70.846211,11.05859 c -3.00544,-0.53131 -5.20222,-2.56688 -6.0954,-5.6481 -0.48731,-1.68106 -0.31735,-4.47124 0.37441,-6.14646 1.74229,-4.21928 7.2919,-5.91504 12.66985,-3.87143 l 0.49884,0.18956 -0.34413,1.33206 c -0.18927,0.73262 -0.38471,1.37245 -0.4343,1.42182 -0.0496,0.0493 -0.47379,-0.0399 -0.94265,-0.19838 -3.71542,-1.25592 -6.74328,-0.3773 -7.96572,2.31149 -0.5346,1.17588 -0.53545,3.66869 -0.001,4.8404 0.58588,1.28596 1.19526,1.96645 2.17628,2.43022 0.9597,0.45371 2.56315,0.58501 3.84702,0.31503 l 0.70196,-0.14761 v -1.38046 -1.38047 l -1.16993,-0.0555 -1.16992,-0.0555 v -1.39779 -1.39781 l 2.76101,-0.0515 2.76103,-0.0515 v 3.91227 c 0,4.51421 0.20827,4.06967 -2.1932,4.68119 -1.74179,0.44354 -4.09037,0.59311 -5.47352,0.34859 z m 12.61806,0.0249 c -0.94601,-0.14891 -1.89086,-0.68951 -2.40473,-1.37588 -0.32036,-0.42791 -0.39394,-0.79344 -0.39394,-1.95693 0,-1.20117 0.0703,-1.52873 0.4376,-2.04159 0.80509,-1.12384 3.04934,-1.89987 5.50562,-1.90377 l 0.88915,-0.001 v -0.73196 c 0,-0.57587 -0.10981,-0.81851 -0.51477,-1.13782 -0.45159,-0.35604 -0.68707,-0.3959 -1.91868,-0.3247 -0.84791,0.049 -1.74393,0.23182 -2.26251,0.46158 l -0.85859,0.38041 -0.38415,-1.29882 -0.38416,-1.29883 0.63354,-0.26355 c 2.77506,-1.15445 5.94764,-1.08538 7.46826,0.1626 1.14019,0.93572 1.28662,1.4828 1.39807,5.22303 0.10528,3.53519 0.14344,3.66456 1.08152,3.67091 0.38871,0.002 0.42117,0.0873 0.42117,1.09937 0,0.97956 -0.0449,1.10848 -0.42117,1.20887 -1.20634,0.32188 -2.71324,-0.0229 -3.38545,-0.77442 l -0.34364,-0.38423 -0.85934,0.5426 c -0.76496,0.48302 -1.14157,0.60156 -2.57152,0.80941 -0.20591,0.03 -0.71544,7.5e-4 -1.13228,-0.0649 z m 3.45504,-2.79449 c 0.52516,-0.37233 0.57866,-0.50384 0.57866,-1.42262 v -1.01236 h -1.13243 c -0.63008,0 -1.3684,0.12144 -1.66439,0.2739 -0.96875,0.49878 -1.11974,1.98371 -0.25536,2.51168 0.49892,0.30474 1.81159,0.11874 2.47352,-0.3506 z m 9.69868,2.70516 c -0.49198,-0.13175 -1.11353,-0.44058 -1.38124,-0.68632 -0.89195,-0.81881 -1.00001,-1.3699 -1.00001,-5.10013 v -3.45389 h -1.02953 -1.02954 v -1.39781 -1.3978 h 1.02954 1.02953 v -1.38459 -1.38458 l 1.07634,-0.21518 c 0.59198,-0.11837 1.26585,-0.25918 1.4975,-0.31297 0.41303,-0.096 0.42117,-0.0651 0.42117,1.5925 v 1.69031 l 1.6379,0.0539 1.63789,0.0539 v 1.30461 1.30462 l -1.63789,0.0539 -1.6379,0.0539 v 2.7632 c 0,2.55269 0.031,2.80236 0.40597,3.27707 0.387,0.48983 0.46487,0.50966 1.66572,0.42412 l 1.25974,-0.0897 0.12964,1.20547 c 0.0714,0.663 0.0588,1.27341 -0.0278,1.35647 -0.17736,0.17012 -2.17253,0.56065 -2.7657,0.54136 -0.21271,-0.007 -0.78931,-0.12034 -1.28132,-0.25211 z m 9.97318,0.0832 c -2.03667,-0.26213 -3.69726,-1.43687 -4.40073,-3.11317 -0.46069,-1.09778 -0.65199,-2.92198 -0.44234,-4.21807 0.48807,-3.01748 2.24872,-4.70597 5.13365,-4.92321 2.34738,-0.17676 4.00499,0.51125 5.03631,2.09038 0.64839,0.99275 0.90404,1.97102 0.92583,3.54283 l 0.0181,1.30462 -3.98916,0.0503 -3.98917,0.0503 0.12873,0.41559 c 0.29327,0.94684 0.69325,1.45867 1.43387,1.83486 1.02183,0.51903 2.66157,0.51654 4.15199,-0.006 0.6081,-0.21332 1.13129,-0.38787 1.16267,-0.38787 0.0798,0 0.63311,1.88257 0.63311,2.15417 0,0.4671 -3.43876,1.48595 -4.58611,1.3588 -0.10295,-0.011 -0.65048,-0.0804 -1.21673,-0.15325 z m 3.10911,-8.05668 c -0.32497,-1.61779 -2.60731,-2.28759 -3.89739,-1.14375 -0.33034,0.29291 -0.89643,1.32937 -0.89643,1.64133 0,0.0546 1.1056,0.0992 2.45686,0.0992 h 2.45684 z m -147.431195,3.6785 v -1.77707 h 1.972502 1.972499 l -0.05382,1.72396 -0.05383,1.72395 -1.918679,0.0531 -1.91868,0.0531 z m 5.24127,-0.006 v -1.77054 h 1.965476 1.965476 v 1.77054 1.77055 h -1.965476 -1.965476 z m -5.24127,-4.65936 v -1.77056 h 1.965476 1.965476 v 1.77056 1.77054 h -1.965476 -1.965476 z m 5.24127,0 v -1.77056 h 1.965476 1.965476 v 1.77056 1.77054 h -1.965476 -1.965476 z"
       id="path660" /></g></svg>
